<?xml version="1.0" encoding="UTF-8" standalone="no"?>
<!-- Generator: Adobe Illustrator 19.0.0, SVG Export Plug-In . SVG Version: 6.00 Build 0)  -->

<svg
   xmlns:dc="http://purl.org/dc/elements/1.1/"
   xmlns:cc="http://creativecommons.org/ns#"
   xmlns:rdf="http://www.w3.org/1999/02/22-rdf-syntax-ns#"
   xmlns:svg="http://www.w3.org/2000/svg"
   xmlns="http://www.w3.org/2000/svg"
   xmlns:sodipodi="http://sodipodi.sourceforge.net/DTD/sodipodi-0.dtd"
   xmlns:inkscape="http://www.inkscape.org/namespaces/inkscape"
   version="1.1"
   id="Capa_1"
   x="0px"
   y="0px"
   viewBox="0 0 15.999999 16"
   xml:space="preserve"
   inkscape:version="0.91 r13725"
   sodipodi:docname="key.svg"
   width="16"
   height="16"><metadata
     id="metadata3480"><rdf:RDF><cc:Work
         rdf:about=""><dc:format>image/svg+xml</dc:format><dc:type
           rdf:resource="http://purl.org/dc/dcmitype/StillImage" /><dc:title></dc:title></cc:Work></rdf:RDF></metadata><defs
     id="defs3478" /><sodipodi:namedview
     pagecolor="#ffffff"
     bordercolor="#666666"
     borderopacity="1"
     objecttolerance="10"
     gridtolerance="10"
     guidetolerance="10"
     inkscape:pageopacity="0"
     inkscape:pageshadow="2"
     inkscape:window-width="1615"
     inkscape:window-height="1026"
     id="namedview3476"
     showgrid="false"
     fit-margin-top="0"
     fit-margin-left="0"
     fit-margin-right="0"
     fit-margin-bottom="0"
     inkscape:zoom="23.427166"
     inkscape:cx="9.4868284"
     inkscape:cy="7.7254041"
     inkscape:window-x="65"
     inkscape:window-y="24"
     inkscape:window-maximized="1"
     inkscape:current-layer="Capa_1" /><path
     style="fill:#e4c05c"
     d="m 9.2925416,6.9166706 c 0.9370944,-1.855944 0.8941064,-3.916936 -0.655968,-5.467318 -2.0325383,-2.03253903 -5.3937103,-1.92738603 -7.2886233,0.316076 -1.64687405,1.949654 -1.50337305,4.910009 0.312057,6.703479 1.380901,1.364201 3.284782,1.6648144 5.008048,1.071938 l 0.874622,0.8922524 1.5547123,0 0,1.237089 1.2370904,0 0,1.237089 1.546362,0 0,1.546363 0.927817,0 0,0.85854 c 0,0.249582 0.01206,0.323499 0.17041,0.481538 0.119997,0.119997 0.278963,0.193294 0.448135,0.206284 l 2.474179,0 0,-2.783452 L 9.2925416,6.9166706 Z M 4.9188103,4.7298056 c -0.604009,0.604008 -1.582856,0.604008 -2.186865,0 -0.604009,-0.60401 -0.604009,-1.582857 0,-2.186866 0.604009,-0.604009 1.582856,-0.604009 2.186865,0 0.603699,0.603699 0.603699,1.582856 0,2.186866 z"
     id="path3440"
     inkscape:connector-curvature="0"
     inkscape:export-xdpi="90"
     inkscape:export-ydpi="90" /><path
     style="fill:#dda86f"
     d="m 8.4791546,8.2681906 -1.7353283,1.349664 0.799161,0.8152434 1.5547113,0 0,1.237089 1.2370914,0 0,1.237089 1.546361,0 0,1.546363 0.927817,0 0,0.85854 c 0,0.249582 0.01206,0.323499 0.17041,0.481538 0.119997,0.119997 0.278964,0.193294 0.448136,0.206284 l 2.474178,0 0,-0.309273 -7.4225374,-7.4225374 z"
     id="path3442"
     inkscape:connector-curvature="0"
     inkscape:export-xdpi="90"
     inkscape:export-ydpi="90" /><path
     style="fill:#bc9c4d"
     d="m 3.8400683,1.4641976 c -1.195647,0 -2.164907,0.96926 -2.164907,2.164906 0,1.195648 0.96926,2.164907 2.164907,2.164907 1.195647,0 2.164906,-0.969259 2.164906,-2.164907 0,-1.195646 -0.969259,-2.164906 -2.164906,-2.164906 z m 0,3.711269 c -0.853901,0 -1.546362,-0.692462 -1.546362,-1.546363 0,-0.8539 0.692461,-1.546361 1.546362,-1.546361 0.8539,0 1.546362,0.692461 1.546362,1.546361 0,0.853901 -0.692152,1.546363 -1.546362,1.546363 z"
     id="path3444"
     inkscape:connector-curvature="0"
     inkscape:export-xdpi="90"
     inkscape:export-ydpi="90" /><g
     id="g3446"
     transform="matrix(0.30927241,0,0,0.30927241,0.05086225,1.0156697e-4)"
     inkscape:export-xdpi="90"
     inkscape:export-ydpi="90" /><g
     id="g3448"
     transform="matrix(0.30927241,0,0,0.30927241,0.05086225,1.0156697e-4)"
     inkscape:export-xdpi="90"
     inkscape:export-ydpi="90" /><g
     id="g3450"
     transform="matrix(0.30927241,0,0,0.30927241,0.05086225,1.0156697e-4)"
     inkscape:export-xdpi="90"
     inkscape:export-ydpi="90" /><g
     id="g3452"
     transform="matrix(0.30927241,0,0,0.30927241,0.05086225,1.0156697e-4)"
     inkscape:export-xdpi="90"
     inkscape:export-ydpi="90" /><g
     id="g3454"
     transform="matrix(0.30927241,0,0,0.30927241,0.05086225,1.0156697e-4)"
     inkscape:export-xdpi="90"
     inkscape:export-ydpi="90" /><g
     id="g3456"
     transform="matrix(0.30927241,0,0,0.30927241,0.05086225,1.0156697e-4)"
     inkscape:export-xdpi="90"
     inkscape:export-ydpi="90" /><g
     id="g3458"
     transform="matrix(0.30927241,0,0,0.30927241,0.05086225,1.0156697e-4)"
     inkscape:export-xdpi="90"
     inkscape:export-ydpi="90" /><g
     id="g3460"
     transform="matrix(0.30927241,0,0,0.30927241,0.05086225,1.0156697e-4)"
     inkscape:export-xdpi="90"
     inkscape:export-ydpi="90" /><g
     id="g3462"
     transform="matrix(0.30927241,0,0,0.30927241,0.05086225,1.0156697e-4)"
     inkscape:export-xdpi="90"
     inkscape:export-ydpi="90" /><g
     id="g3464"
     transform="matrix(0.30927241,0,0,0.30927241,0.05086225,1.0156697e-4)"
     inkscape:export-xdpi="90"
     inkscape:export-ydpi="90" /><g
     id="g3466"
     transform="matrix(0.30927241,0,0,0.30927241,0.05086225,1.0156697e-4)"
     inkscape:export-xdpi="90"
     inkscape:export-ydpi="90" /><g
     id="g3468"
     transform="matrix(0.30927241,0,0,0.30927241,0.05086225,1.0156697e-4)"
     inkscape:export-xdpi="90"
     inkscape:export-ydpi="90" /><g
     id="g3470"
     transform="matrix(0.30927241,0,0,0.30927241,0.05086225,1.0156697e-4)"
     inkscape:export-xdpi="90"
     inkscape:export-ydpi="90" /><g
     id="g3472"
     transform="matrix(0.30927241,0,0,0.30927241,0.05086225,1.0156697e-4)"
     inkscape:export-xdpi="90"
     inkscape:export-ydpi="90" /><g
     id="g3474"
     transform="matrix(0.30927241,0,0,0.30927241,0.05086225,1.0156697e-4)"
     inkscape:export-xdpi="90"
     inkscape:export-ydpi="90" /></svg>