<svg xmlns="http://www.w3.org/2000/svg" xmlns:xlink="http://www.w3.org/1999/xlink" width="101333.333" height="101333.333" viewBox="0 0 95.000001 95.000001"><defs><linearGradient id="a"><stop offset="0" stop-color="#226e23"/><stop offset="1" stop-color="#63ab3a"/></linearGradient><linearGradient xlink:href="#a" id="b" x1="53.239" y1="12.753" x2="53.239" y2="86.357" gradientUnits="userSpaceOnUse"/></defs><g transform="translate(-2.5 -2.5)"><circle r="45.934" cx="50" cy="50" opacity=".871" fill="#fff" fill-rule="evenodd" stroke="#000" stroke-width="3.132" stroke-linecap="round" stroke-linejoin="round" stroke-opacity=".784"/><circle cx="50" cy="50" r="42.321" fill="none"/><path d="M50 6.324A43.676 43.676 0 0 0 6.324 50 43.676 43.676 0 0 0 50 93.676 43.676 43.676 0 0 0 93.676 50 43.676 43.676 0 0 0 50 6.324zm0 6.71c2.264.01 4.523.226 6.748.648.107.483.168.984.168 1.5 0 3.822-3.097 6.918-6.918 6.916-3.82.002-6.916-3.092-6.916-6.914 0-.52.062-1.02.17-1.506 2.225-.42 4.484-.636 6.748-.643zm-18.994 5.3c-.24 1.22-.37 2.474-.37 3.764 0 7.72 4.527 14.368 11.063 17.48v35.09l8.298 8.3 8.3-8.302-.476-7.35 3.914-3.912-3.914-3.912 5.87-5.867-5.87-5.87.477-8.18c6.537-3.11 11.065-9.758 11.065-17.477 0-1.287-.133-2.54-.373-3.758C80.125 25.007 86.947 37.024 86.965 50c0 20.415-16.55 36.964-36.965 36.965-20.415 0-36.964-16.55-36.965-36.965.016-12.978 6.837-24.997 17.97-31.666zm13.46 25.898h2.766v27.666h-2.765l-.002-27.664v-.002z" fill="#f9f9f9" fill-rule="evenodd"/><path d="M56.748 13.682c.107.483.168.984.168 1.5 0 3.823-3.097 6.918-6.918 6.916-3.82.003-6.916-3.09-6.916-6.913 0-.52.063-1.022.17-1.507 2.225-.42 4.484-.635 6.748-.642 2.264.008 4.523.224 6.748.646zm-26.113 8.416c0 7.72 4.528 14.367 11.064 17.48v35.09l8.298 8.3 8.3-8.3-.475-7.35 3.913-3.913-3.913-3.913 5.87-5.868-5.87-5.87.476-8.178c6.537-3.11 11.065-9.758 11.065-17.478 0-1.287-.133-2.542-.372-3.76C80.125 25.01 86.946 37.025 86.963 50c0 20.415-16.548 36.964-36.963 36.964-20.415 0-36.964-16.55-36.964-36.964.015-12.978 6.836-24.998 17.97-31.667-.24 1.22-.37 2.476-.37 3.765zm13.83 22.135h2.767V71.9h-2.765l-.002-27.665v-.002z" opacity=".94" fill="url(#b)"/></g></svg>