<?xml version="1.0" encoding="UTF-8" standalone="no"?>
<svg
   xmlns:osb="http://www.openswatchbook.org/uri/2009/osb"
   xmlns:dc="http://purl.org/dc/elements/1.1/"
   xmlns:cc="http://creativecommons.org/ns#"
   xmlns:rdf="http://www.w3.org/1999/02/22-rdf-syntax-ns#"
   xmlns:svg="http://www.w3.org/2000/svg"
   xmlns="http://www.w3.org/2000/svg"
   xmlns:sodipodi="http://sodipodi.sourceforge.net/DTD/sodipodi-0.dtd"
   xmlns:inkscape="http://www.inkscape.org/namespaces/inkscape"
   width="99.982719"
   height="100"
   viewBox="0 0 99.982716 100"
   id="svg2"
   version="1.1"
   inkscape:version="0.91 r13725"
   sodipodi:docname="keepassxc3.svg"
   inkscape:export-filename="/home/thezero/keepassxr.png"
   inkscape:export-xdpi="197.8022"
   inkscape:export-ydpi="197.8022">
  <sodipodi:namedview
     pagecolor="#ffffff"
     bordercolor="#666666"
     borderopacity="1"
     objecttolerance="10"
     gridtolerance="10"
     guidetolerance="10"
     inkscape:pageopacity="0"
     inkscape:pageshadow="2"
     inkscape:window-width="1615"
     inkscape:window-height="1026"
     id="namedview4155"
     showgrid="false"
     inkscape:zoom="5.6568542"
     inkscape:cx="44.74901"
     inkscape:cy="64.51124"
     inkscape:window-x="65"
     inkscape:window-y="24"
     inkscape:window-maximized="1"
     inkscape:current-layer="svg2"
     showguides="false"
     inkscape:snap-nodes="false"
     fit-margin-top="0"
     fit-margin-left="0"
     fit-margin-right="0"
     fit-margin-bottom="0" />
  <defs
     id="defs4">
    <linearGradient
       id="linearGradient4153"
       osb:paint="solid">
      <stop
         style="stop-color:#b3b3b3;stop-opacity:1;"
         offset="0"
         id="stop4155" />
    </linearGradient>
  </defs>
  <metadata
     id="metadata7">
    <rdf:RDF>
      <cc:Work
         rdf:about="">
        <dc:format>image/svg+xml</dc:format>
        <dc:type
           rdf:resource="http://purl.org/dc/dcmitype/StillImage" />
        <dc:title></dc:title>
      </cc:Work>
    </rdf:RDF>
  </metadata>
  <path
     style="opacity:1;fill:none;fill-opacity:1;fill-rule:evenodd;stroke:none;stroke-width:1.5;stroke-linecap:round;stroke-linejoin:round;stroke-miterlimit:4;stroke-dasharray:none;stroke-opacity:1"
     d="M 96.261673,50.02092 A 46.058575,46.058575 0 0 1 50.203098,96.079494 46.058575,46.058575 0 0 1 4.1445236,50.02092 46.058575,46.058575 0 0 1 50.203098,3.9623451 46.058575,46.058575 0 0 1 96.261673,50.02092 Z"
     id="path3336" />
  <path
     style="opacity:1;fill:#000000;fill-opacity:1;fill-rule:evenodd;stroke:none;stroke-width:3.13186812;stroke-linecap:round;stroke-linejoin:round;stroke-miterlimit:4;stroke-dasharray:none;stroke-opacity:0.78431373"
     d="M 48.6875 0 C 16.979242 -0.093971505 -8.1042191 34.696139 2.4453125 64.794922 C 10.855959 96.107835 52.376205 110.58889 78.429688 91.279297 C 105.86961 73.990184 107.426 30.049573 81.277344 10.863281 C 72.531267 3.8862887 61.389576 0.00353406 50.203125 0.03125 C 49.696597 0.012022417 49.190806 0.0014916112 48.6875 0 z M 50.203125 9.7929688 C 52.667296 9.8019987 55.12578 10.037285 57.546875 10.496094 C 57.663496 11.022484 57.730469 11.567363 57.730469 12.128906 C 57.730469 16.289112 54.359253 19.658427 50.201172 19.65625 C 46.0431 19.65865 42.673828 16.291097 42.673828 12.130859 C 42.673828 11.567008 42.741971 11.018628 42.859375 10.490234 C 45.280623 10.032967 47.739096 9.8004551 50.203125 9.7929688 z M 29.53125 15.558594 C 29.269481 16.885411 29.128645 18.25285 29.128906 19.65625 C 29.128906 28.057586 34.056703 35.290379 41.169922 38.677734 L 41.169922 76.867188 L 50.201172 85.900391 L 59.234375 76.865234 L 58.716797 68.867188 L 62.974609 64.609375 L 58.716797 60.351562 L 65.105469 53.964844 L 58.716797 47.576172 L 59.234375 38.675781 C 66.349727 35.290535 71.277344 28.057586 71.277344 19.65625 C 71.277344 18.255647 71.133859 16.888734 70.873047 15.564453 C 82.988544 22.820766 90.411822 35.899202 90.431641 50.021484 C 90.431053 72.23876 72.420402 90.249401 50.203125 90.25 C 27.985848 90.249401 9.975197 72.23876 9.9746094 50.021484 C 9.9914781 35.897211 17.414533 22.816736 29.53125 15.558594 z M 44.179688 43.744141 L 47.191406 43.744141 L 47.191406 73.853516 L 44.181641 73.853516 L 44.179688 43.746094 L 44.179688 43.744141 z "
     id="path4586" />
  <g
     inkscape:groupmode="layer"
     id="layer1"
     inkscape:label="Layer 1"
     style="display:inline" />
</svg>
